<svg xmlns="http://www.w3.org/2000/svg" viewBox="0 0 100 100"><defs><style>.cls-1{fill:#007a67;}.cls-2{fill:#fff;}</style></defs><g id="Layer_2" data-name="Layer 2"><circle class="cls-1" cx="49.75" cy="50" r="48"/><path class="cls-2" d="M49.77,73.42c-8.08,0-16.17-.07-24.25,0-2.08,0-2.66-.65-2.7-2.71-.09-4.18,1.06-7.63,4.44-10.3,1.66-1.32,2.11-3.29,2.09-5.37q0-5.74,0-11.51c.06-9.8,5.61-17.33,15-20.24A2.11,2.11,0,0,0,46,21.4,4.18,4.18,0,0,1,50.3,18a4.1,4.1,0,0,1,4.22,3.47,2.48,2.48,0,0,0,2,2.17A20.31,20.31,0,0,1,70.3,43.29c0,4,0,7.94,0,11.92A6.84,6.84,0,0,0,72.93,61c3.62,2.91,4.11,6.9,3.81,11.16-.1,1.45-1.17,1.29-2.1,1.29q-9.45,0-18.91,0Z"/><path class="cls-2" d="M43.36,76.45H56.11a6,6,0,0,1-5.55,6.32C46.54,83.09,43.78,80.76,43.36,76.45Z"/></g></svg>