<svg xmlns="http://www.w3.org/2000/svg" viewBox="0 0 530 530"><defs><style>.cls-1{fill:#4d4d4d;}.cls-2{fill:#007a67;}.cls-3{fill:#fff;}</style></defs><g id="Layer_1" data-name="Layer 1"><circle class="cls-1" cx="265" cy="265" r="265"/><circle class="cls-2" cx="265" cy="265" r="238.7"/></g><g id="Layer_2" data-name="Layer 2"><path class="cls-3" d="M399.7,434H129.8q6.42-146.7,12.82-293.38h70.06v-3.21c.07-9.38-.31-18.8.31-28.15,1.53-23.33,18.35-42.27,41.27-47.14,30.11-6.41,59.86,15.47,62.25,46.1.7,9,.28,18,.37,27,0,1.7,0,3.4,0,5.29h70Q393.3,287.36,399.7,434ZM305.1,140.46V138.2q0-12.27,0-24.54a40.35,40.35,0,0,0-45.82-40.5c-19.41,2.46-34.68,19.54-34.86,39.1-.08,8.44,0,16.87,0,25.31v2.89Z"/><path class="cls-2" d="M354,265.19c2.59-1.08,4.79-.41,6.92-.52l.3-.29a14.44,14.44,0,0,0-5-6.71,39.93,39.93,0,0,0-18.34-7.92c-11.14-1.9-20.16,1.07-28.2,8.61-3.34,3.14-5,7.26-7.12,11a21,21,0,0,1-5.78-.84,116.92,116.92,0,0,0-29.24-5,68.29,68.29,0,0,0-11.85.86c-3.27.49-6.51,1.1-9.74,1.77a113.3,113.3,0,0,0-11.83,3c-2.69.85-3.76.4-4.83-2.21a29.09,29.09,0,0,0-7.21-10c-5.4-5.17-11.91-7.5-19.26-7.95a37.32,37.32,0,0,0-19.22,4.06c-4.85,2.44-9.79,5.39-11.61,11.23l.28.31c2.13.11,4.34-.56,6.69.41-.58,1.81-2.08,2.57-3,3.77-2.62,3.3-5.44,6.5-5.84,11l.21.21c2.18.46,4-2.14,6.54-.58-1,4.47-3.88,8.72-2.42,13.86.58-.47.95-.77,1.3-1.07,3-2.58,3.48-2.59,5.18.75a25.62,25.62,0,0,0,3.74,4.9,28.42,28.42,0,0,0,10.51,7.64,6.17,6.17,0,0,1,0,1.69c-3.25,9.14-4,18.68-4.69,28.25a61,61,0,0,0,1,15.15c1,5.88,2.5,11.65,6.36,16.52,0,0,2.59,2.64,4.8,4.42,2.7,2.19,6,3.5,9.24,4.74a102.56,102.56,0,0,0,34.58,6.54c15.17.35,30.38,1.09,45.55-.58,4.87-.53,9.69-1.09,14.52-1.94a79.6,79.6,0,0,0,21.79-7.3,21.48,21.48,0,0,0,9.47-9.59c3.46-6.42,4.26-13.53,4.8-20.52A82,82,0,0,0,340,314.64c-.82-3-1.34-6-2-9.12A29.57,29.57,0,0,0,352.19,293c2-3.29,2.24-3.39,5.23-.84.45.38.77,1,1.58.85.77-4.83-1-9.22-2.76-13.56,2.57-1.55,4.46,1,6.64.56l.22-.21C362.44,273.68,357.86,269.81,354,265.19Zm-71.08,79.88c-.4,4.92-3.84,7.77-8.94,8.09-2.41.16-4.82,0-7.23,0h0c-2.24,0-4.5.17-6.73,0-5.39-.46-9.72-2.87-9.8-9.84a108.69,108.69,0,0,1,.13-12.51,54.2,54.2,0,0,1,3.46-13.62c1.41-3.73,4.87-4.7,7.93-5.24a24.5,24.5,0,0,1,12.74.8,8.65,8.65,0,0,1,5.55,5.52A66.1,66.1,0,0,1,282.92,345.07Zm-86.49-46.36-.35-.42c-4.85-5.91-5.62-10-3.41-16a8.93,8.93,0,0,1,14.53-3.4c.57.53,1.08,1.15,2,2.11-5.42,4.77-9.25,10.68-12.59,17.46Zm24.17,46.41a14.66,14.66,0,1,1,14.66-14.66A14.66,14.66,0,0,1,220.6,345.12Zm116.17-46.7c-3.41-6.26-6.62-12.61-12.83-17.31,1.32-1.38,2.15-2.33,3.06-3.2,3.84-3.66,10.14-1.2,12,2.54,1,2.08,2.67,3.89,2.79,6.43C342,290.83,340.38,294.83,336.77,298.42Zm-23.86,46.7a14.66,14.66,0,1,1,14.66-14.66A14.66,14.66,0,0,1,312.91,345.12Z"/></g></svg>