<svg xmlns="http://www.w3.org/2000/svg" viewBox="0 0 530 530"><defs><style>.cls-1{fill:#4d4d4d;}.cls-2{fill:#007a67;}.cls-3{fill:#fff;}</style></defs><g id="Layer_1" data-name="Layer 1"><circle class="cls-1" cx="265" cy="265" r="265"/><circle class="cls-2" cx="265" cy="265" r="238.7"/></g><g id="Layer_2" data-name="Layer 2"><path class="cls-3" d="M264.73,339.68H137.81c-15.1,0-26.2-9-28.63-23.29a27.46,27.46,0,0,1-.29-4.72q0-74.7,0-149.41c0-17.52,12.82-30.26,30.4-30.26h251c17.54,0,30.34,12.77,30.35,30.3q0,74.72,0,149.42c0,15.31-10.89,26.89-26.14,27.87-1,.07-2.05.08-3.07.08ZM404.88,298.9v-2.61q0-66.89,0-133.77c0-8.79-5.73-14.5-14.53-14.5H139.13c-8.79,0-14.49,5.72-14.49,14.54q0,66.88,0,133.78c0,.83.07,1.67.11,2.56ZM264.65,327.14a7.85,7.85,0,1,0-7.81-7.88A7.89,7.89,0,0,0,264.65,327.14Z"/><path class="cls-3" d="M226,382.27V343.33h77.35v38.94h3.05q24.87,0,49.72,0c4.49,0,7.48,2,8.53,5.69a7.92,7.92,0,0,1-7.12,10.12c-.55,0-1.1,0-1.65,0H173.61c-5,0-8-2.19-8.93-6.38a7.77,7.77,0,0,1,6.3-9.27,21.34,21.34,0,0,1,3.3-.16H226Z"/><path class="cls-3" d="M339.61,180c2.22-.92,4.11-.35,5.94-.44l.26-.25a12.44,12.44,0,0,0-4.26-5.76,34.13,34.13,0,0,0-15.74-6.79c-9.55-1.64-17.29.91-24.19,7.38-2.87,2.7-4.27,6.23-6.11,9.45a18.29,18.29,0,0,1-5-.72,100.14,100.14,0,0,0-25.09-4.28,58.85,58.85,0,0,0-10.17.73c-2.8.42-5.58.95-8.35,1.52a96.81,96.81,0,0,0-10.15,2.6c-2.31.73-3.23.34-4.14-1.9a25,25,0,0,0-6.19-8.54c-4.64-4.44-10.22-6.44-16.53-6.83a32,32,0,0,0-16.49,3.49c-4.16,2.09-8.4,4.62-10,9.63l.24.27c1.83.09,3.72-.48,5.74.35-.5,1.55-1.79,2.21-2.6,3.23-2.24,2.84-4.67,5.58-5,9.43l.18.18c1.87.39,3.47-1.84,5.61-.5-.89,3.84-3.33,7.48-2.08,11.89.5-.41.82-.66,1.12-.92,2.59-2.21,3-2.22,4.44.64a22.15,22.15,0,0,0,3.22,4.21,24.23,24.23,0,0,0,9,6.55,5.31,5.31,0,0,1,0,1.46c-2.78,7.84-3.46,16-4,24.23a53,53,0,0,0,.85,13c.91,5,2.15,10,5.46,14.17,0,0,2.23,2.26,4.12,3.79a28.33,28.33,0,0,0,7.93,4.06,88,88,0,0,0,29.67,5.62c13,.3,26.06.93,39.09-.5,4.17-.46,8.31-.94,12.45-1.66a68.47,68.47,0,0,0,18.7-6.27,18.49,18.49,0,0,0,8.12-8.22c3-5.52,3.66-11.61,4.12-17.61a70.56,70.56,0,0,0-2.25-24.26c-.71-2.56-1.16-5.19-1.72-7.84a25.33,25.33,0,0,0,12.2-10.7c1.7-2.82,1.92-2.91,4.49-.72.38.32.66.83,1.35.73.66-4.15-.82-7.91-2.36-11.64,2.2-1.33,3.82.84,5.69.48l.19-.18C346.85,187.25,342.92,183.93,339.61,180Zm-61,68.55c-.34,4.21-3.29,6.66-7.67,6.93-2.06.14-4.13,0-6.2,0h0c-1.92,0-3.86.14-5.78,0-4.62-.39-8.33-2.47-8.4-8.45a93.65,93.65,0,0,1,.11-10.73,46.71,46.71,0,0,1,3-11.68c1.22-3.2,4.19-4,6.81-4.5a21,21,0,0,1,10.93.69,7.44,7.44,0,0,1,4.77,4.73A56.72,56.72,0,0,1,278.62,248.51Zm-74.2-39.78q-.16-.18-.3-.36c-4.17-5.08-4.83-8.59-2.93-13.76a7.66,7.66,0,0,1,12.47-2.92c.49.46.92,1,1.68,1.82-4.66,4.09-7.94,9.15-10.8,15A1.79,1.79,0,0,0,204.42,208.73Zm20.74,39.82A12.58,12.58,0,1,1,237.73,236,12.58,12.58,0,0,1,225.16,248.55Zm99.67-40.08c-2.93-5.36-5.68-10.82-11-14.85,1.13-1.18,1.84-2,2.63-2.75,3.29-3.13,8.69-1,10.3,2.19.9,1.78,2.29,3.33,2.4,5.51C329.3,202,327.93,205.39,324.83,208.47Zm-20.48,40.08A12.58,12.58,0,1,1,316.93,236,12.58,12.58,0,0,1,304.35,248.55Z"/></g></svg>