<svg xmlns="http://www.w3.org/2000/svg" viewBox="0 0 530 530"><defs><style>.cls-1{fill:#4d4d4d;}.cls-2,.cls-4{fill:#007a67;}.cls-3{fill:#fff;}.cls-4{font-size:99.28px;font-family:Nunito-Black, Nunito Black;font-weight:800;}</style></defs><g id="Layer_1" data-name="Layer 1"><circle class="cls-1" cx="265" cy="265" r="265"/><circle class="cls-2" cx="265" cy="265" r="238.7"/></g><g id="Layer_2" data-name="Layer 2"><ellipse class="cls-3" cx="213.75" cy="181.47" rx="128" ry="94.62"/><path class="cls-3" d="M129.84,249.22s-7.11,21.61-32.71,26.87c0,0,46.22,7.59,59.74-13.44Z"/><ellipse class="cls-3" cx="315.75" cy="326.04" rx="128" ry="94.62"/><path class="cls-3" d="M399.67,393.8s7.11,21.61,32.71,26.86c0,0-46.23,7.6-59.74-13.43Z"/><path class="cls-2" d="M267.1,161.38c1.63-.41,2.87.19,4.15.32l.2-.15a8.66,8.66,0,0,0-2.34-4.43A23.9,23.9,0,0,0,259,150.76a18.61,18.61,0,0,0-17.5,2.55c-2.27,1.56-3.61,3.86-5.23,5.89a12.67,12.67,0,0,1-3.35-1A69.84,69.84,0,0,0,216,152.57a40.28,40.28,0,0,0-7.11-.57c-2,0-4,.07-5.94.17a68.66,68.66,0,0,0-7.29.72c-1.67.26-2.27-.1-2.66-1.75a18.29,18.29,0,0,0-14.08-13,22.3,22.3,0,0,0-11.78.67c-3.1,1-6.29,2.31-7.9,5.6l.13.22c1.26.25,2.63.06,3.94.85-.51,1-1.47,1.33-2.14,2-1.85,1.72-3.82,3.36-4.46,6l.11.15c1.25.46,2.59-.91,3.93.25-1,2.55-3.1,4.81-2.7,8l.88-.52c2-1.26,2.29-1.22,3,.91a15.07,15.07,0,0,0,1.78,3.25,17,17,0,0,0,5.54,5.48,4.16,4.16,0,0,1-.16,1c-2.76,5.12-4.09,10.71-5.35,16.33a37.43,37.43,0,0,0-.78,9.08c.1,3.58.44,7.13,2.28,10.37,0,0,1.3,1.8,2.45,3.06a19.93,19.93,0,0,0,5.05,3.65,61.61,61.61,0,0,0,19.92,7c9,1.59,17.92,3.4,27.08,3.79,2.94.12,5.84.23,8.79.16A47.73,47.73,0,0,0,242.09,223a13,13,0,0,0,6.49-4.83c2.64-3.5,3.75-7.64,4.71-11.74a49.39,49.39,0,0,0,1-17c-.21-1.84-.25-3.7-.36-5.59a17.83,17.83,0,0,0,9.57-6.11c1.47-1.78,1.63-1.81,3.18,0,.23.27.37.65.85.65.9-2.8.27-5.56-.4-8.3,1.66-.68,2.55,1,3.88.94l.16-.11C271.33,167.18,269,164.47,267.1,161.38Zm-49.41,41c-.69,2.88-3,4.26-6,4-1.44-.12-2.86-.42-4.29-.63h0c-1.33-.2-2.68-.31-4-.62-3.16-.76-5.51-2.59-4.92-6.73a65.75,65.75,0,0,1,1.21-7.41,32.83,32.83,0,0,1,3.28-7.76c1.18-2.08,3.32-2.35,5.18-2.39a14.62,14.62,0,0,1,7.49,1.63,5.15,5.15,0,0,1,2.79,3.78A39.61,39.61,0,0,1,217.69,202.33ZM170.58,167l-.17-.28c-2.34-4-2.43-6.45-.57-9.83a5.36,5.36,0,0,1,8.93-.7c.29.37.53.78,1,1.44a32.44,32.44,0,0,0-9.05,9.21Zm10.14,29.72a8.8,8.8,0,1,1,10-7.37A8.79,8.79,0,0,1,180.72,196.71Zm73.14-17.18c-1.46-4-2.78-8.08-6-11.43.9-.7,1.48-1.19,2.11-1.63,2.6-1.81,6.12.21,6.89,2.6.43,1.33,1.23,2.55,1.07,4.07A9.11,9.11,0,0,1,253.86,179.53Zm-18.39,25.54a8.8,8.8,0,1,1,10-7.37A8.8,8.8,0,0,1,235.47,205.07Z"/><text class="cls-4" transform="matrix(1, -0.09, 0.09, 1, 306.12, 366.42)">!</text></g></svg>