<svg xmlns="http://www.w3.org/2000/svg" viewBox="0 0 300.77 101"><defs><style>.cls-1{fill:#4d4d4d;}.cls-2{fill:#007a67;}.cls-3{fill:#fff;}</style></defs><g id="Nav"><circle class="cls-1" cx="50.5" cy="50.5" r="50.5"/><circle class="cls-2" cx="50.5" cy="50.5" r="45.49"/><path class="cls-3" d="M84.23,41.75a6.57,6.57,0,0,1,2.67-.2l.11-.12a5.58,5.58,0,0,0-1.91-2.58,15.35,15.35,0,0,0-7.06-3,11.93,11.93,0,0,0-10.85,3.31,16.81,16.81,0,0,0-2.74,4.24A8.51,8.51,0,0,1,62.23,43,44.72,44.72,0,0,0,51,41.11a25.79,25.79,0,0,0-4.56.33c-1.26.19-2.51.43-3.75.68a44.64,44.64,0,0,0-4.55,1.17c-1,.32-1.45.15-1.86-.86a11.74,11.74,0,0,0-10.19-6.89,14.38,14.38,0,0,0-7.4,1.57c-1.86.94-3.76,2.07-4.46,4.32l.11.12a6.67,6.67,0,0,1,2.57.16c-.22.69-.8,1-1.16,1.44-1,1.28-2.1,2.51-2.25,4.23l.08.08c.84.18,1.56-.82,2.52-.22-.4,1.72-1.5,3.35-.94,5.33l.51-.41c1.16-1,1.33-1,2,.29a9.47,9.47,0,0,0,1.44,1.88,10.77,10.77,0,0,0,4,2.94,2.86,2.86,0,0,1,0,.66,40,40,0,0,0-1.81,10.86,23.83,23.83,0,0,0,.39,5.84A13.65,13.65,0,0,0,24.14,81s1,1,1.85,1.7a12.91,12.91,0,0,0,3.56,1.83A39.25,39.25,0,0,0,42.85,87c5.84.14,11.69.42,17.53-.22,1.88-.21,3.73-.42,5.59-.75a30.52,30.52,0,0,0,8.38-2.8A8.4,8.4,0,0,0,78,79.56a19.49,19.49,0,0,0,1.85-7.9,31.51,31.51,0,0,0-1-10.88c-.31-1.15-.51-2.33-.77-3.52a11.34,11.34,0,0,0,5.48-4.8c.76-1.26.86-1.3,2-.32.17.15.3.38.6.33a9.56,9.56,0,0,0-1.05-5.22c1-.6,1.71.38,2.55.22l.08-.09C87.48,45,85.72,43.53,84.23,41.75ZM56.88,72.49a3.31,3.31,0,0,1-3.44,3.11c-.93.06-1.85,0-2.78,0h0c-.87,0-1.73.06-2.59,0-2.08-.17-3.74-1.1-3.77-3.78A40.78,40.78,0,0,1,44.35,67a20.41,20.41,0,0,1,1.33-5.23c.54-1.44,1.87-1.81,3-2a9.31,9.31,0,0,1,4.9.31,3.33,3.33,0,0,1,2.14,2.12A25.56,25.56,0,0,1,56.88,72.49ZM23.6,54.65l-.14-.16c-1.86-2.28-2.16-3.86-1.31-6.18A3.43,3.43,0,0,1,27.74,47c.22.2.42.44.76.81a21,21,0,0,0-4.85,6.72A1.17,1.17,0,0,0,23.6,54.65Zm9.3,17.86a5.65,5.65,0,1,1,5.64-5.65A5.64,5.64,0,0,1,32.9,72.51Zm44.7-18c-1.31-2.4-2.55-4.85-4.93-6.66.5-.53.82-.89,1.17-1.23,1.48-1.41,3.9-.46,4.63,1a6.29,6.29,0,0,1,1.07,2.47A5.84,5.84,0,0,1,77.6,54.53Zm-9.18,18a5.65,5.65,0,1,1,5.64-5.65A5.64,5.64,0,0,1,68.42,72.51Z"/><path class="cls-3" d="M50.4,37.92a1.81,1.81,0,0,1-1.81-1.81V10.56a1.81,1.81,0,0,1,3.62,0V36.11A1.81,1.81,0,0,1,50.4,37.92Z"/><path class="cls-3" d="M61.9,33.09a1.81,1.81,0,0,1-1.81-1.81V15.39a1.81,1.81,0,0,1,3.62,0V31.28A1.81,1.81,0,0,1,61.9,33.09Z"/><path class="cls-3" d="M38.91,33.09a1.81,1.81,0,0,1-1.81-1.81V15.39a1.81,1.81,0,0,1,3.62,0V31.28A1.81,1.81,0,0,1,38.91,33.09Z"/><path class="cls-2" d="M118.32,32.49a2.2,2.2,0,0,1-.57-1.63V17a2,2,0,0,1,2.2-2.2h5.23a11.35,11.35,0,0,1,5.21,1.1,7.8,7.8,0,0,1,3.36,3.14,9.75,9.75,0,0,1,1.16,4.87,9.86,9.86,0,0,1-1.15,4.9A7.58,7.58,0,0,1,130.42,32a11.58,11.58,0,0,1-5.24,1.09H120A2.2,2.2,0,0,1,118.32,32.49Zm6.52-3.26a5.46,5.46,0,0,0,4-1.31,5.35,5.35,0,0,0,1.33-4,5.32,5.32,0,0,0-1.33-4,5.54,5.54,0,0,0-4-1.29h-2.33V29.23Z"/><path class="cls-2" d="M146.92,20.47a1.84,1.84,0,0,1,.51,1.41,2.06,2.06,0,0,1-.47,1.5,3,3,0,0,1-1.73.6l-.77.08a2.74,2.74,0,0,0-1.85.81,2.71,2.71,0,0,0-.56,1.8v4.42a1.94,1.94,0,0,1-.66,1.6,2.8,2.8,0,0,1-3.28,0,1.94,1.94,0,0,1-.66-1.6V22.14a1.88,1.88,0,0,1,.66-1.53,2.43,2.43,0,0,1,1.59-.54,2.23,2.23,0,0,1,1.54.52,1.86,1.86,0,0,1,.58,1.45v.49a3.4,3.4,0,0,1,1.36-1.76,3.82,3.82,0,0,1,2-.67l.36,0A1.75,1.75,0,0,1,146.92,20.47Z"/><path class="cls-2" d="M150.76,32.45a5.84,5.84,0,0,1-2.46-2.31,6.91,6.91,0,0,1-.87-3.52,6.82,6.82,0,0,1,.87-3.51,5.83,5.83,0,0,1,2.45-2.29,9,9,0,0,1,7.4,0,5.87,5.87,0,0,1,2.44,2.29,6.82,6.82,0,0,1,.87,3.51,6.91,6.91,0,0,1-.87,3.52,5.85,5.85,0,0,1-2.44,2.31,8.74,8.74,0,0,1-7.39,0Zm6.15-5.83q0-3.21-2.46-3.21T152,26.62q0,3.21,2.46,3.21T156.91,26.62Z"/><path class="cls-2" d="M174.9,20.86a5.57,5.57,0,0,1,2,2.37,8.24,8.24,0,0,1,.71,3.49,8,8,0,0,1-.71,3.46,5.49,5.49,0,0,1-2,2.29,5.41,5.41,0,0,1-2.93.8,5.21,5.21,0,0,1-2.24-.49,4,4,0,0,1-1.59-1.32v4.4a1.82,1.82,0,0,1-.62,1.44,2.35,2.35,0,0,1-1.63.55,2.49,2.49,0,0,1-1.71-.58,1.92,1.92,0,0,1-.64-1.49V22.19a2,2,0,0,1,.6-1.54,2.29,2.29,0,0,1,1.65-.58,2.36,2.36,0,0,1,1.59.52,2,2,0,0,1,.68,1.37,3.76,3.76,0,0,1,1.6-1.42A5.06,5.06,0,0,1,172,20,5.17,5.17,0,0,1,174.9,20.86ZM172.42,29a3.64,3.64,0,0,0,.63-2.3,3.92,3.92,0,0,0-.64-2.42,2.44,2.44,0,0,0-3.68,0,3.79,3.79,0,0,0-.65,2.38,3.68,3.68,0,0,0,.65,2.34,2.24,2.24,0,0,0,1.86.82A2.18,2.18,0,0,0,172.42,29Z"/><path class="cls-2" d="M194.74,25.23a4.62,4.62,0,0,1,.85,2.84,4.41,4.41,0,0,1-.79,2.62,5,5,0,0,1-2.25,1.75,8.79,8.79,0,0,1-3.43.62h-6.88a2,2,0,0,1-2.2-2.2V17a2,2,0,0,1,2.2-2.2h6.62a7.36,7.36,0,0,1,4.57,1.28,4.1,4.1,0,0,1,1.7,3.45,4.2,4.2,0,0,1-.75,2.47,4.25,4.25,0,0,1-2.1,1.57A4.7,4.7,0,0,1,194.74,25.23ZM184.67,22h3.39a3.62,3.62,0,0,0,2-.41,1.47,1.47,0,0,0,.62-1.32,1.61,1.61,0,0,0-.62-1.4,3.5,3.5,0,0,0-2-.44h-3.39Zm5.89,7a1.75,1.75,0,0,0,.61-1.49,1.76,1.76,0,0,0-.61-1.49,3.5,3.5,0,0,0-2-.45h-3.86v3.88h3.86A3.5,3.5,0,0,0,190.56,29Z"/><path class="cls-2" d="M209,29.44a1.86,1.86,0,0,1,.37,1.21,1.72,1.72,0,0,1-1,1.58,9.87,9.87,0,0,1-2.08.74,9.18,9.18,0,0,1-2.21.3,8.1,8.1,0,0,1-3.7-.8A5.73,5.73,0,0,1,198,30.16a7,7,0,0,1-.85-3.52,7.18,7.18,0,0,1,.81-3.43,6,6,0,0,1,2.28-2.35,6.53,6.53,0,0,1,3.3-.84,6.23,6.23,0,0,1,3.13.77,5.32,5.32,0,0,1,2.08,2.2,7.09,7.09,0,0,1,.74,3.34,1.38,1.38,0,0,1-.27.92,1,1,0,0,1-.79.32h-6.83a2.86,2.86,0,0,0,.8,1.79,2.75,2.75,0,0,0,1.84.54,4.47,4.47,0,0,0,1.19-.14,11.41,11.41,0,0,0,1.22-.4c.25-.1.51-.19.76-.27a2.28,2.28,0,0,1,.69-.12A1.22,1.22,0,0,1,209,29.44Zm-6.85-5.73a2.78,2.78,0,0,0-.65,1.69h4.07c-.11-1.52-.76-2.28-2-2.28A1.89,1.89,0,0,0,202.19,23.71Z"/><path class="cls-2" d="M221.84,21.43a5.83,5.83,0,0,1,1.41,4.28v5.41a2,2,0,0,1-.58,1.54,2.26,2.26,0,0,1-1.62.56,2.15,2.15,0,0,1-1.48-.52,2,2,0,0,1-.64-1.4,2.83,2.83,0,0,1-1.21,1.45,3.92,3.92,0,0,1-2.05.52,5.3,5.3,0,0,1-2.38-.53,4.21,4.21,0,0,1-1.67-1.48,3.9,3.9,0,0,1-.61-2.13,3.18,3.18,0,0,1,.72-2.19A4.18,4.18,0,0,1,214,25.76a19.36,19.36,0,0,1,4.19-.36h.7v-.31a1.8,1.8,0,0,0-.41-1.31,2,2,0,0,0-1.4-.4,10.17,10.17,0,0,0-3.11.73,3,3,0,0,1-1,.2,1.28,1.28,0,0,1-1-.46,1.84,1.84,0,0,1-.39-1.22,1.73,1.73,0,0,1,.23-.93,2.08,2.08,0,0,1,.76-.65,9,9,0,0,1,2.27-.75,13.22,13.22,0,0,1,2.69-.28A5.94,5.94,0,0,1,221.84,21.43Zm-3.55,8.1a2.48,2.48,0,0,0,.59-1.7v-.31h-.41a6.57,6.57,0,0,0-2.36.3,1,1,0,0,0-.7,1,1.37,1.37,0,0,0,.38,1,1.28,1.28,0,0,0,1,.39A2,2,0,0,0,218.29,29.53Z"/><path class="cls-2" d="M235.31,20.47a1.81,1.81,0,0,1,.52,1.41,2,2,0,0,1-.48,1.5,2.94,2.94,0,0,1-1.72.6l-.78.08a2.76,2.76,0,0,0-1.85.81,2.71,2.71,0,0,0-.55,1.8v4.42a1.94,1.94,0,0,1-.66,1.6,2.82,2.82,0,0,1-3.29,0,1.94,1.94,0,0,1-.66-1.6V22.14a1.88,1.88,0,0,1,.66-1.53,2.43,2.43,0,0,1,1.59-.54,2.21,2.21,0,0,1,1.54.52,1.83,1.83,0,0,1,.59,1.45v.49a3.38,3.38,0,0,1,1.35-1.76,3.82,3.82,0,0,1,2-.67l.37,0A1.73,1.73,0,0,1,235.31,20.47Z"/><path class="cls-2" d="M237.56,32.49a2.2,2.2,0,0,1-.57-1.63V17a2,2,0,0,1,2.2-2.2h9a2.61,2.61,0,0,1,1.68.46,1.64,1.64,0,0,1,.57,1.35q0,1.86-2.25,1.86h-6.52V22h6c1.5,0,2.25.61,2.25,1.84a1.63,1.63,0,0,1-.57,1.34,2.61,2.61,0,0,1-1.68.47h-6v3.78h6.52q2.25,0,2.25,1.86a1.62,1.62,0,0,1-.57,1.34,2.55,2.55,0,0,1-1.68.47h-9A2.22,2.22,0,0,1,237.56,32.49Z"/><path class="cls-2" d="M262.42,21.43a5.83,5.83,0,0,1,1.41,4.28v5.41a2,2,0,0,1-.58,1.54,2.26,2.26,0,0,1-1.62.56,2.2,2.2,0,0,1-1.49-.52,1.92,1.92,0,0,1-.63-1.4,2.85,2.85,0,0,1-1.22,1.45,3.91,3.91,0,0,1-2,.52,5.27,5.27,0,0,1-2.38-.53,4.15,4.15,0,0,1-1.67-1.48,3.82,3.82,0,0,1-.61-2.13,3.22,3.22,0,0,1,.71-2.19,4.21,4.21,0,0,1,2.27-1.18,19.29,19.29,0,0,1,4.19-.36h.7v-.31a1.76,1.76,0,0,0-.42-1.31,2,2,0,0,0-1.4-.4,10.12,10.12,0,0,0-3.1.73,3.09,3.09,0,0,1-1,.2,1.26,1.26,0,0,1-1-.46,1.84,1.84,0,0,1-.39-1.22,1.65,1.65,0,0,1,.23-.93,2.13,2.13,0,0,1,.75-.65,9,9,0,0,1,2.28-.75,13.15,13.15,0,0,1,2.69-.28A5.94,5.94,0,0,1,262.42,21.43Zm-3.56,8.1a2.44,2.44,0,0,0,.6-1.7v-.31H259a6.5,6.5,0,0,0-2.35.3,1,1,0,0,0-.7,1,1.36,1.36,0,0,0,.37,1,1.3,1.3,0,0,0,1,.39A2,2,0,0,0,258.86,29.53Z"/><path class="cls-2" d="M275.68,31.48a1.48,1.48,0,0,1-.7,1.35,3.39,3.39,0,0,1-2,.36l-.73,0a5.33,5.33,0,0,1-3.53-1.41,4.7,4.7,0,0,1-1.2-3.43V23.72h-.75q-2.07,0-2.07-1.71t2.07-1.68h.75V18.65a2.06,2.06,0,0,1,.62-1.57,2.72,2.72,0,0,1,3.36,0,2,2,0,0,1,.63,1.57v1.68h1.42q2.07,0,2.07,1.68t-2.07,1.71h-1.42v5a1.2,1.2,0,0,0,.29.83,1.1,1.1,0,0,0,.77.36l.75.05C275.1,30,275.68,30.52,275.68,31.48Z"/><path class="cls-2" d="M279,33a6.4,6.4,0,0,1-2.09-.83,1.29,1.29,0,0,1-.57-.62,2.24,2.24,0,0,1-.21-1,1.78,1.78,0,0,1,.38-1.16,1.17,1.17,0,0,1,.94-.45,2.86,2.86,0,0,1,.73.09,6.17,6.17,0,0,1,.82.3c.56.19,1,.34,1.47.44a7.09,7.09,0,0,0,1.61.16,2.54,2.54,0,0,0,1.1-.2.6.6,0,0,0,.4-.56.55.55,0,0,0-.19-.44,2.19,2.19,0,0,0-.74-.29c-.36-.1-1-.23-1.84-.4a7.14,7.14,0,0,1-3.32-1.34,3.16,3.16,0,0,1-1-2.52,3.45,3.45,0,0,1,.73-2.15,4.88,4.88,0,0,1,2-1.5,7.41,7.41,0,0,1,2.89-.54,9,9,0,0,1,2.27.28,7.45,7.45,0,0,1,1.95.8,1.62,1.62,0,0,1,.8,1.51,1.88,1.88,0,0,1-.38,1.21,1.18,1.18,0,0,1-1,.49,3.84,3.84,0,0,1-1.61-.44,7.5,7.5,0,0,0-1.1-.42A3.7,3.7,0,0,0,282,23.3a2.15,2.15,0,0,0-1,.2.6.6,0,0,0-.36.56.72.72,0,0,0,.5.64,10,10,0,0,0,2,.52,7.55,7.55,0,0,1,3.54,1.33,3.24,3.24,0,0,1,1,2.58,3.51,3.51,0,0,1-1.57,3,7,7,0,0,1-4.2,1.13A14.27,14.27,0,0,1,279,33Z"/><path class="cls-1" d="M127.34,40.72a1,1,0,0,1,1.15.06.77.77,0,0,1,.26.61,1.37,1.37,0,0,1-.09.43l-2.14,5.81a.84.84,0,0,1-.39.46,1.24,1.24,0,0,1-.63.17,1.2,1.2,0,0,1-.62-.17.86.86,0,0,1-.38-.46l-1.39-4-1.45,4a.9.9,0,0,1-.4.46,1.17,1.17,0,0,1-.61.17,1.23,1.23,0,0,1-.62-.17.86.86,0,0,1-.38-.46l-2.16-5.81a1.22,1.22,0,0,1-.07-.41.75.75,0,0,1,.28-.62,1,1,0,0,1,.66-.23,1.06,1.06,0,0,1,.55.15.89.89,0,0,1,.35.47l1.47,4.21,1.55-4.21a.85.85,0,0,1,.34-.46,1,1,0,0,1,1.06,0,.89.89,0,0,1,.34.47l1.45,4.29,1.53-4.3A.85.85,0,0,1,127.34,40.72Z"/><path class="cls-1" d="M133.65,46.67a.76.76,0,0,1,.15.5.71.71,0,0,1-.42.65,3.91,3.91,0,0,1-.86.3,3.44,3.44,0,0,1-.91.13,3.38,3.38,0,0,1-1.53-.33,2.35,2.35,0,0,1-1-1,2.87,2.87,0,0,1-.35-1.46,3,3,0,0,1,.33-1.41,2.44,2.44,0,0,1,.94-1,2.74,2.74,0,0,1,1.37-.35,2.57,2.57,0,0,1,1.29.32,2.22,2.22,0,0,1,.86.91,3,3,0,0,1,.3,1.38.56.56,0,0,1-.11.37.41.41,0,0,1-.33.14h-2.82a1,1,0,0,0,1.09,1,2,2,0,0,0,.5-.06,4.24,4.24,0,0,0,.5-.17l.31-.11a1.11,1.11,0,0,1,.28-.05A.51.51,0,0,1,133.65,46.67Zm-2.83-2.37a1.15,1.15,0,0,0-.27.7h1.68c0-.63-.31-.94-.81-.94A.78.78,0,0,0,130.82,44.3Z"/><path class="cls-1" d="M136.06,40.92a1.42,1.42,0,0,1,.29,1,2.94,2.94,0,0,1-.22,1.17,3.3,3.3,0,0,1-.66,1,.51.51,0,0,1-.38.16.57.57,0,0,1-.37-.14.44.44,0,0,1-.16-.33.44.44,0,0,1,.14-.31,2,2,0,0,0,.5-.84.94.94,0,0,1-.91-1,1,1,0,0,1,.29-.74,1,1,0,0,1,1.48,0Z"/><path class="cls-1" d="M137.61,48a.81.81,0,0,1-.27-.66V41.47a.82.82,0,0,1,.27-.67,1,1,0,0,1,.68-.22,1,1,0,0,1,.67.22.79.79,0,0,1,.28.67v5.88A.79.79,0,0,1,139,48a1.06,1.06,0,0,1-.67.22A1.09,1.09,0,0,1,137.61,48Z"/><path class="cls-1" d="M140.61,48a.81.81,0,0,1-.27-.66V41.47a.82.82,0,0,1,.27-.67,1,1,0,0,1,.68-.22,1,1,0,0,1,.68.22.82.82,0,0,1,.27.67v5.88A.81.81,0,0,1,142,48a1.11,1.11,0,0,1-.68.22A1.09,1.09,0,0,1,140.61,48Z"/><path class="cls-1" d="M151.68,40.82a.75.75,0,0,1,.28.61v5.92a.84.84,0,0,1-.26.64,1,1,0,0,1-.68.24,1,1,0,0,1-.65-.21.79.79,0,0,1-.28-.57,1.5,1.5,0,0,1-.66.58,2.05,2.05,0,0,1-1,.22,2.19,2.19,0,0,1-1.2-.35,2.27,2.27,0,0,1-.82-1,3.31,3.31,0,0,1-.3-1.44,3.19,3.19,0,0,1,.29-1.42,2.15,2.15,0,0,1,2-1.28,2.18,2.18,0,0,1,.93.2,1.71,1.71,0,0,1,.66.55V41.4a.76.76,0,0,1,.25-.6,1,1,0,0,1,.67-.22A1,1,0,0,1,151.68,40.82Zm-1.86,5.67a1.58,1.58,0,0,0,.27-1,1.48,1.48,0,0,0-.27-1,.91.91,0,0,0-.77-.34.92.92,0,0,0-.76.33,1.47,1.47,0,0,0-.26.95,1.58,1.58,0,0,0,.27,1,.88.88,0,0,0,.75.36A.94.94,0,0,0,149.82,46.49Z"/><path class="cls-1" d="M157,43a.75.75,0,0,1,.21.58.85.85,0,0,1-.2.62,1.16,1.16,0,0,1-.71.24l-.32,0a1.13,1.13,0,0,0-.76.33,1.08,1.08,0,0,0-.23.74v1.83a.81.81,0,0,1-.27.66,1.11,1.11,0,0,1-.68.22,1.09,1.09,0,0,1-.68-.22.81.81,0,0,1-.27-.66V43.66a.78.78,0,0,1,.27-.64,1,1,0,0,1,.66-.22.92.92,0,0,1,.63.21.78.78,0,0,1,.24.6v.21a1.43,1.43,0,0,1,.56-.73,1.68,1.68,0,0,1,.82-.28h.15A.71.71,0,0,1,157,43Z"/><path class="cls-1" d="M158.56,47.91a2.38,2.38,0,0,1-1-.95,2.87,2.87,0,0,1-.36-1.46,2.8,2.8,0,0,1,.36-1.44,2.38,2.38,0,0,1,1-1,3.69,3.69,0,0,1,3.05,0,2.38,2.38,0,0,1,1,1A2.8,2.8,0,0,1,163,45.5a2.87,2.87,0,0,1-.36,1.46,2.38,2.38,0,0,1-1,.95,3.2,3.2,0,0,1-1.53.34A3.24,3.24,0,0,1,158.56,47.91Zm2.54-2.41q0-1.32-1-1.32c-.67,0-1,.44-1,1.32s.34,1.33,1,1.33S161.1,46.39,161.1,45.5Z"/><path class="cls-1" d="M168.53,43.13a2.31,2.31,0,0,1,.82,1,3.47,3.47,0,0,1,.29,1.45,3.33,3.33,0,0,1-.29,1.42,2.25,2.25,0,0,1-.82,1,2.22,2.22,0,0,1-1.21.33,2,2,0,0,1-.92-.21,1.61,1.61,0,0,1-.66-.54v1.82a.75.75,0,0,1-.25.59,1.13,1.13,0,0,1-1.38,0,.8.8,0,0,1-.27-.62v-5.6a.87.87,0,0,1,.25-.64,1,1,0,0,1,.68-.24,1,1,0,0,1,.66.21.82.82,0,0,1,.28.57,1.59,1.59,0,0,1,.66-.59,2.17,2.17,0,0,1,.95-.21A2.2,2.2,0,0,1,168.53,43.13Zm-1,3.37a1.53,1.53,0,0,0,.26-1,1.66,1.66,0,0,0-.26-1,.92.92,0,0,0-.76-.35.9.9,0,0,0-.76.34,1.57,1.57,0,0,0-.27,1,1.51,1.51,0,0,0,.27,1,.94.94,0,0,0,.77.34A.9.9,0,0,0,167.5,46.5Z"/><path class="cls-1" d="M173.76,41.8a.93.93,0,0,1,0-1.33,1.32,1.32,0,0,1,1.52,0,.85.85,0,0,1,.29.66.88.88,0,0,1-.28.67,1.12,1.12,0,0,1-.77.25A1.09,1.09,0,0,1,173.76,41.8Zm.08,6.21a.81.81,0,0,1-.27-.66V43.68a.8.8,0,0,1,.27-.66,1,1,0,0,1,.68-.22,1,1,0,0,1,.68.22.8.8,0,0,1,.27.66v3.67a.81.81,0,0,1-.27.66,1.09,1.09,0,0,1-.68.22A1.11,1.11,0,0,1,173.84,48Z"/><path class="cls-1" d="M181.51,43.34A2.67,2.67,0,0,1,182,45v2.31a.84.84,0,0,1-.26.64,1.13,1.13,0,0,1-1.39,0,.83.83,0,0,1-.25-.64V45.13a1.11,1.11,0,0,0-.17-.68.58.58,0,0,0-.5-.22.86.86,0,0,0-.67.27,1.06,1.06,0,0,0-.26.74v2.11a.83.83,0,0,1-.25.64,1.13,1.13,0,0,1-1.39,0,.84.84,0,0,1-.26-.64V43.66a.8.8,0,0,1,.27-.62,1,1,0,0,1,.69-.24,1,1,0,0,1,.65.22.78.78,0,0,1,.24.59,1.88,1.88,0,0,1,.72-.62,2.19,2.19,0,0,1,1-.21A1.73,1.73,0,0,1,181.51,43.34Z"/><path class="cls-1" d="M187.22,47.91a2.4,2.4,0,0,1-1-.95,2.87,2.87,0,0,1-.36-1.46,2.8,2.8,0,0,1,.36-1.44,2.44,2.44,0,0,1,1-1,3.32,3.32,0,0,1,1.53-.33,3.38,3.38,0,0,1,1.53.33,2.35,2.35,0,0,1,1,1,2.8,2.8,0,0,1,.36,1.44,2.87,2.87,0,0,1-.36,1.46,2.35,2.35,0,0,1-1,.95,3.25,3.25,0,0,1-1.53.34A3.19,3.19,0,0,1,187.22,47.91Zm2.53-2.41c0-.88-.34-1.32-1-1.32s-1,.44-1,1.32.34,1.33,1,1.33S189.75,46.39,189.75,45.5Z"/><path class="cls-1" d="M197.43,43.34a2.61,2.61,0,0,1,.46,1.7v2.31a.84.84,0,0,1-.26.64,1.11,1.11,0,0,1-1.38,0,.8.8,0,0,1-.26-.64V45.13a1.11,1.11,0,0,0-.17-.68.56.56,0,0,0-.49-.22.88.88,0,0,0-.68.27,1.05,1.05,0,0,0-.25.74v2.11a.84.84,0,0,1-.26.64,1,1,0,0,1-.69.24,1,1,0,0,1-.7-.24.83.83,0,0,1-.25-.64V43.66a.82.82,0,0,1,.26-.62,1,1,0,0,1,.7-.24.94.94,0,0,1,.64.22.78.78,0,0,1,.24.59,2,2,0,0,1,.72-.62,2.22,2.22,0,0,1,1-.21A1.72,1.72,0,0,1,197.43,43.34Z"/><path class="cls-1" d="M207.05,43a.82.82,0,0,1,.26.64v3.69A.8.8,0,0,1,207,48a1,1,0,0,1-.69.24.92.92,0,0,1-.63-.21.76.76,0,0,1-.26-.56,1.64,1.64,0,0,1-.62.58,1.75,1.75,0,0,1-.87.21,1.92,1.92,0,0,1-1.51-.56A2.53,2.53,0,0,1,202,46v-2.3a.82.82,0,0,1,.26-.64,1.11,1.11,0,0,1,1.38,0,.79.79,0,0,1,.26.64V46c0,.51.22.76.66.76a.8.8,0,0,0,.63-.27,1,1,0,0,0,.25-.73V43.68a.79.79,0,0,1,.26-.64,1.11,1.11,0,0,1,1.38,0Z"/><path class="cls-1" d="M213.36,43.34a2.68,2.68,0,0,1,.45,1.7v2.31a.83.83,0,0,1-.25.64,1.13,1.13,0,0,1-1.39,0,.84.84,0,0,1-.26-.64V45.13a1.12,1.12,0,0,0-.16-.68.58.58,0,0,0-.5-.22.9.9,0,0,0-.68.27,1.1,1.1,0,0,0-.25.74v2.11a.83.83,0,0,1-.25.64,1,1,0,0,1-.7.24,1,1,0,0,1-.69-.24.84.84,0,0,1-.26-.64V43.66a.8.8,0,0,1,.27-.62,1,1,0,0,1,.69-.24A1,1,0,0,1,210,43a.78.78,0,0,1,.24.59A1.85,1.85,0,0,1,211,43a2.27,2.27,0,0,1,1-.21A1.73,1.73,0,0,1,213.36,43.34Z"/><path class="cls-1" d="M219.57,43.11a2.25,2.25,0,0,1,.82,1,3.33,3.33,0,0,1,.29,1.42,3.46,3.46,0,0,1-.29,1.44,2.34,2.34,0,0,1-.82,1,2.2,2.2,0,0,1-1.21.35,2,2,0,0,1-1-.22,1.5,1.5,0,0,1-.66-.58.79.79,0,0,1-.28.57,1,1,0,0,1-.66.21,1,1,0,0,1-.68-.24.88.88,0,0,1-.25-.64V41.43a.78.78,0,0,1,.27-.61,1,1,0,0,1,.7-.24,1,1,0,0,1,.68.22.76.76,0,0,1,.25.6v2.13a1.71,1.71,0,0,1,.66-.55,2.17,2.17,0,0,1,.92-.2A2.22,2.22,0,0,1,219.57,43.11Zm-1,3.37a1.59,1.59,0,0,0,.27-1,1.53,1.53,0,0,0-.26-.95,1,1,0,0,0-1.52,0,1.48,1.48,0,0,0-.27,1,1.58,1.58,0,0,0,.27,1,.93.93,0,0,0,.76.34A.89.89,0,0,0,218.53,46.48Z"/><path class="cls-1" d="M226.23,46.67a.76.76,0,0,1,.15.5.7.7,0,0,1-.41.65,4.1,4.1,0,0,1-.86.3,3.5,3.5,0,0,1-.91.13,3.32,3.32,0,0,1-1.53-.33,2.38,2.38,0,0,1-1-1,3,3,0,0,1-.35-1.46,2.86,2.86,0,0,1,.34-1.41,2.37,2.37,0,0,1,.94-1,2.67,2.67,0,0,1,1.36-.35,2.57,2.57,0,0,1,1.29.32,2.16,2.16,0,0,1,.86.91,3,3,0,0,1,.31,1.38.51.51,0,0,1-.12.37.39.39,0,0,1-.32.14h-2.82a1.14,1.14,0,0,0,.33.73,1.11,1.11,0,0,0,.76.23,1.88,1.88,0,0,0,.49-.06,3.29,3.29,0,0,0,.5-.17l.32-.11a1,1,0,0,1,.28-.05A.49.49,0,0,1,226.23,46.67ZM223.4,44.3a1.21,1.21,0,0,0-.26.7h1.68c0-.63-.32-.94-.82-.94A.78.78,0,0,0,223.4,44.3Z"/><path class="cls-1" d="M231.52,43.36a2.45,2.45,0,0,1,.58,1.77v2.23a.86.86,0,0,1-.24.64.94.94,0,0,1-.67.23.85.85,0,0,1-.61-.22.81.81,0,0,1-.27-.57,1.11,1.11,0,0,1-.5.59,1.5,1.5,0,0,1-.84.22,2.24,2.24,0,0,1-1-.22,1.71,1.71,0,0,1-.69-.61,1.56,1.56,0,0,1-.25-.88,1.28,1.28,0,0,1,.29-.9,1.72,1.72,0,0,1,.93-.49A8,8,0,0,1,230,45h.28v-.13a.7.7,0,0,0-.17-.54.79.79,0,0,0-.57-.16,4.27,4.27,0,0,0-1.29.3,1.46,1.46,0,0,1-.41.08.53.53,0,0,1-.43-.19.75.75,0,0,1-.16-.5.67.67,0,0,1,.1-.39.75.75,0,0,1,.31-.26,3.69,3.69,0,0,1,.94-.31,5.24,5.24,0,0,1,1.11-.12A2.45,2.45,0,0,1,231.52,43.36Zm-1.47,3.34a1,1,0,0,0,.24-.7v-.12h-.17a2.78,2.78,0,0,0-1,.12.43.43,0,0,0-.29.41.56.56,0,0,0,.16.41.54.54,0,0,0,.4.16A.81.81,0,0,0,230.05,46.7Z"/><path class="cls-1" d="M237.08,43a.75.75,0,0,1,.21.58.85.85,0,0,1-.2.62,1.16,1.16,0,0,1-.71.24l-.32,0a1.1,1.1,0,0,0-.76.33,1.08,1.08,0,0,0-.23.74v1.83a.81.81,0,0,1-.27.66,1.11,1.11,0,0,1-.68.22,1.09,1.09,0,0,1-.68-.22.81.81,0,0,1-.27-.66V43.66a.78.78,0,0,1,.27-.64,1,1,0,0,1,.66-.22.92.92,0,0,1,.63.21.78.78,0,0,1,.24.6v.21a1.43,1.43,0,0,1,.56-.73,1.68,1.68,0,0,1,.82-.28h.15A.71.71,0,0,1,237.08,43Z"/><path class="cls-1" d="M241.9,43.36a2.45,2.45,0,0,1,.58,1.77v2.23a.86.86,0,0,1-.24.64.94.94,0,0,1-.67.23A.85.85,0,0,1,241,48a.77.77,0,0,1-.26-.57,1.17,1.17,0,0,1-.51.59,1.5,1.5,0,0,1-.84.22,2.24,2.24,0,0,1-1-.22,1.78,1.78,0,0,1-.69-.61,1.56,1.56,0,0,1-.25-.88,1.33,1.33,0,0,1,.29-.9,1.72,1.72,0,0,1,.94-.49,7.84,7.84,0,0,1,1.73-.15h.28v-.13a.7.7,0,0,0-.17-.54.79.79,0,0,0-.57-.16,4.16,4.16,0,0,0-1.28.3,1.59,1.59,0,0,1-.42.08.53.53,0,0,1-.43-.19.75.75,0,0,1-.16-.5.67.67,0,0,1,.1-.39.75.75,0,0,1,.31-.26,3.69,3.69,0,0,1,.94-.31,5.24,5.24,0,0,1,1.11-.12A2.45,2.45,0,0,1,241.9,43.36Zm-1.47,3.34a1,1,0,0,0,.24-.7v-.12h-.17a2.78,2.78,0,0,0-1,.12.43.43,0,0,0-.29.41.56.56,0,0,0,.16.41.54.54,0,0,0,.4.16A.81.81,0,0,0,240.43,46.7Z"/><path class="cls-1" d="M248.24,43.11a2.23,2.23,0,0,1,.81,1,3.19,3.19,0,0,1,.3,1.42,3.31,3.31,0,0,1-.3,1.44,2.27,2.27,0,0,1-.82,1,2.14,2.14,0,0,1-1.2.35,2.05,2.05,0,0,1-1-.22,1.48,1.48,0,0,1-.65-.58.83.83,0,0,1-.29.57,1,1,0,0,1-.65.21.94.94,0,0,1-.68-.24.84.84,0,0,1-.25-.64V41.43a.8.8,0,0,1,.26-.61,1,1,0,0,1,.71-.24,1,1,0,0,1,.67.22.76.76,0,0,1,.26.6v2.13a1.61,1.61,0,0,1,.65-.55,2.22,2.22,0,0,1,.93-.2A2.24,2.24,0,0,1,248.24,43.11Zm-1,3.37a1.59,1.59,0,0,0,.27-1,1.47,1.47,0,0,0-.27-.95.89.89,0,0,0-.75-.33.92.92,0,0,0-.77.34,1.48,1.48,0,0,0-.26,1,1.58,1.58,0,0,0,.26,1,.93.93,0,0,0,.76.34A.91.91,0,0,0,247.2,46.48Z"/><path class="cls-1" d="M250.49,48a.81.81,0,0,1-.27-.66V41.47a.82.82,0,0,1,.27-.67,1,1,0,0,1,.68-.22,1,1,0,0,1,.68.22.82.82,0,0,1,.27.67v5.88a.81.81,0,0,1-.27.66,1.09,1.09,0,0,1-.68.22A1.11,1.11,0,0,1,250.49,48Z"/><path class="cls-1" d="M257.9,46.67a.76.76,0,0,1,.15.5.71.71,0,0,1-.42.65,3.91,3.91,0,0,1-.86.3,3.44,3.44,0,0,1-.91.13,3.38,3.38,0,0,1-1.53-.33,2.35,2.35,0,0,1-1-1,2.87,2.87,0,0,1-.35-1.46,3,3,0,0,1,.33-1.41,2.44,2.44,0,0,1,.94-1,2.74,2.74,0,0,1,1.37-.35,2.57,2.57,0,0,1,1.29.32,2.22,2.22,0,0,1,.86.91,3,3,0,0,1,.3,1.38.56.56,0,0,1-.11.37.41.41,0,0,1-.33.14h-2.82a1,1,0,0,0,1.09,1,2,2,0,0,0,.5-.06,4.24,4.24,0,0,0,.5-.17l.31-.11a1.11,1.11,0,0,1,.28-.05A.51.51,0,0,1,257.9,46.67Zm-2.83-2.37a1.15,1.15,0,0,0-.27.7h1.68c0-.63-.31-.94-.81-.94A.78.78,0,0,0,255.07,44.3Z"/><path class="cls-1" d="M266.94,43.34a2.68,2.68,0,0,1,.44,1.7v2.31a.83.83,0,0,1-.25.64,1.13,1.13,0,0,1-1.39,0,.84.84,0,0,1-.26-.64V45c0-.51-.22-.77-.66-.77a.9.9,0,0,0-.68.27,1.1,1.1,0,0,0-.25.74v2.11a.83.83,0,0,1-.25.64,1,1,0,0,1-.7.24,1,1,0,0,1-.69-.24.84.84,0,0,1-.26-.64V41.43a.78.78,0,0,1,.27-.61,1,1,0,0,1,.7-.24,1,1,0,0,1,.68.22.76.76,0,0,1,.25.6v2.14a1.83,1.83,0,0,1,.72-.57,2.25,2.25,0,0,1,1-.19A1.67,1.67,0,0,1,266.94,43.34Z"/><path class="cls-1" d="M273.49,43a.82.82,0,0,1,.26.64v3.69a.8.8,0,0,1-.27.62,1,1,0,0,1-.69.24.92.92,0,0,1-.63-.21.73.73,0,0,1-.26-.56,1.64,1.64,0,0,1-.62.58,1.81,1.81,0,0,1-.87.21,1.92,1.92,0,0,1-1.51-.56,2.53,2.53,0,0,1-.49-1.71v-2.3a.82.82,0,0,1,.26-.64,1.11,1.11,0,0,1,1.38,0,.79.79,0,0,1,.26.64V46c0,.51.22.76.66.76a.8.8,0,0,0,.63-.27,1,1,0,0,0,.25-.73V43.68a.79.79,0,0,1,.26-.64,1.11,1.11,0,0,1,1.38,0Z"/><path class="cls-1" d="M279.79,43.34a2.61,2.61,0,0,1,.46,1.7v2.31A.83.83,0,0,1,280,48a1,1,0,0,1-.7.24,1,1,0,0,1-.69-.24.84.84,0,0,1-.26-.64V45.13a1.12,1.12,0,0,0-.16-.68.58.58,0,0,0-.5-.22.9.9,0,0,0-.68.27,1.05,1.05,0,0,0-.25.74v2.11a.83.83,0,0,1-.25.64,1,1,0,0,1-.7.24,1,1,0,0,1-.69-.24.84.84,0,0,1-.26-.64V43.66a.8.8,0,0,1,.27-.62,1,1,0,0,1,.69-.24,1,1,0,0,1,.65.22.78.78,0,0,1,.24.59,1.85,1.85,0,0,1,.71-.62,2.27,2.27,0,0,1,1-.21A1.7,1.7,0,0,1,279.79,43.34Z"/><path class="cls-1" d="M286.67,43a.84.84,0,0,1,.26.64v3.84a2.45,2.45,0,0,1-.79,2,3.43,3.43,0,0,1-2.3.67,5.65,5.65,0,0,1-1.11-.11,3,3,0,0,1-.89-.31,1,1,0,0,1-.3-.27.77.77,0,0,1-.11-.39.78.78,0,0,1,.15-.5.5.5,0,0,1,.4-.19,2.69,2.69,0,0,1,.7.16c.22.07.41.12.59.16a2.24,2.24,0,0,0,.52.06,1.4,1.4,0,0,0,.95-.27,1.08,1.08,0,0,0,.31-.86v-.41a1.55,1.55,0,0,1-.67.56,2.2,2.2,0,0,1-.95.21,2.25,2.25,0,0,1-1.22-.32,2.09,2.09,0,0,1-.83-.91,3,3,0,0,1-.3-1.37,3,3,0,0,1,.3-1.38,2.15,2.15,0,0,1,.83-.93,2.34,2.34,0,0,1,1.22-.32,2.24,2.24,0,0,1,1,.21,1.68,1.68,0,0,1,.67.59.74.74,0,0,1,.27-.57,1,1,0,0,1,.66-.21A1,1,0,0,1,286.67,43Zm-1.89,3.24a1.23,1.23,0,0,0,.28-.87,1.28,1.28,0,0,0-.28-.89,1,1,0,0,0-.78-.32,1,1,0,0,0-.77.31,1.36,1.36,0,0,0-.27.9,1.25,1.25,0,0,0,.28.87,1.11,1.11,0,0,0,1.54,0Z"/><path class="cls-1" d="M292.71,46.67a.76.76,0,0,1-.26,1.15,4.1,4.1,0,0,1-.86.3,3.44,3.44,0,0,1-.91.13,3.32,3.32,0,0,1-1.53-.33,2.35,2.35,0,0,1-1-1,2.87,2.87,0,0,1-.36-1.46,3,3,0,0,1,.34-1.41,2.37,2.37,0,0,1,.94-1,2.7,2.7,0,0,1,1.36-.35,2.57,2.57,0,0,1,1.29.32,2.16,2.16,0,0,1,.86.91,2.87,2.87,0,0,1,.31,1.38.56.56,0,0,1-.11.37.42.42,0,0,1-.33.14h-2.82a1,1,0,0,0,1.09,1,1.88,1.88,0,0,0,.49-.06,3.29,3.29,0,0,0,.5-.17l.32-.11a1,1,0,0,1,.28-.05A.48.48,0,0,1,292.71,46.67Zm-2.82-2.37a1.15,1.15,0,0,0-.27.7h1.68c-.05-.63-.32-.94-.81-.94A.78.78,0,0,0,289.89,44.3Z"/><path class="cls-1" d="M297.66,43a.75.75,0,0,1,.22.58.85.85,0,0,1-.2.62,1.16,1.16,0,0,1-.71.24l-.32,0a1.15,1.15,0,0,0-.77.33,1.13,1.13,0,0,0-.23.74v1.83a.81.81,0,0,1-.27.66,1.09,1.09,0,0,1-.68.22A1.06,1.06,0,0,1,294,48a.79.79,0,0,1-.28-.66V43.66A.76.76,0,0,1,294,43a1,1,0,0,1,.65-.22.93.93,0,0,1,.64.21.78.78,0,0,1,.24.6v.21a1.38,1.38,0,0,1,.56-.73,1.68,1.68,0,0,1,.82-.28h.15A.68.68,0,0,1,297.66,43Z"/><path class="cls-1" d="M298.94,45.52a.75.75,0,0,1-.2-.42l-.55-3.32a.82.82,0,0,1,0-.18.92.92,0,0,1,.33-.75,1.25,1.25,0,0,1,.82-.27,1.18,1.18,0,0,1,.82.28,1,1,0,0,1,.32.76.86.86,0,0,1,0,.17l-.57,3.31a.68.68,0,0,1-.18.42.54.54,0,0,1-.38.15A.52.52,0,0,1,298.94,45.52Zm-.36,2.41a1.06,1.06,0,0,1,0-1.48,1.05,1.05,0,0,1,1.47,0,1.09,1.09,0,0,1,0,1.48,1.05,1.05,0,0,1-1.47,0Z"/></g></svg>