<svg xmlns="http://www.w3.org/2000/svg" viewBox="0 0 101.77 101"><defs><style>.cls-1{fill:#4d4d4d;}.cls-2{fill:#007a67;}.cls-3{fill:#fff;}</style></defs><g id="Nav"><circle class="cls-1" cx="50.5" cy="50.5" r="50.5"/><circle class="cls-2" cx="50.5" cy="50.5" r="45.49"/><path class="cls-3" d="M84.23,41.75a6.57,6.57,0,0,1,2.67-.2l.11-.12a5.58,5.58,0,0,0-1.91-2.58,15.35,15.35,0,0,0-7.06-3,11.93,11.93,0,0,0-10.85,3.31,16.81,16.81,0,0,0-2.74,4.24A8.51,8.51,0,0,1,62.23,43,44.72,44.72,0,0,0,51,41.11a25.79,25.79,0,0,0-4.56.33c-1.26.19-2.51.43-3.75.68a44.64,44.64,0,0,0-4.55,1.17c-1,.32-1.45.15-1.86-.86a11.74,11.74,0,0,0-10.19-6.89,14.38,14.38,0,0,0-7.4,1.57c-1.86.94-3.76,2.07-4.46,4.32l.11.12a6.67,6.67,0,0,1,2.57.16c-.22.69-.8,1-1.16,1.44-1,1.28-2.1,2.51-2.25,4.23l.08.08c.84.18,1.56-.82,2.52-.22-.4,1.72-1.5,3.35-.94,5.33l.51-.41c1.16-1,1.33-1,2,.29a9.47,9.47,0,0,0,1.44,1.88,10.77,10.77,0,0,0,4,2.94,2.86,2.86,0,0,1,0,.66,40,40,0,0,0-1.81,10.86,23.83,23.83,0,0,0,.39,5.84A13.65,13.65,0,0,0,24.14,81s1,1,1.85,1.7a12.91,12.91,0,0,0,3.56,1.83A39.25,39.25,0,0,0,42.85,87c5.84.14,11.69.42,17.53-.22,1.88-.21,3.73-.42,5.59-.75a30.52,30.52,0,0,0,8.38-2.8A8.4,8.4,0,0,0,78,79.56a19.49,19.49,0,0,0,1.85-7.9,31.51,31.51,0,0,0-1-10.88c-.31-1.15-.51-2.33-.77-3.52a11.34,11.34,0,0,0,5.48-4.8c.76-1.26.86-1.3,2-.32.17.15.3.38.6.33a9.56,9.56,0,0,0-1.05-5.22c1-.6,1.71.38,2.55.22l.08-.09C87.48,45,85.72,43.53,84.23,41.75ZM56.88,72.49a3.31,3.31,0,0,1-3.44,3.11c-.93.06-1.85,0-2.78,0h0c-.87,0-1.73.06-2.59,0-2.08-.17-3.74-1.1-3.77-3.78A40.78,40.78,0,0,1,44.35,67a20.41,20.41,0,0,1,1.33-5.23c.54-1.44,1.87-1.81,3-2a9.31,9.31,0,0,1,4.9.31,3.33,3.33,0,0,1,2.14,2.12A25.56,25.56,0,0,1,56.88,72.49ZM23.6,54.65l-.14-.16c-1.86-2.28-2.16-3.86-1.31-6.18A3.43,3.43,0,0,1,27.74,47c.22.2.42.44.76.81a21,21,0,0,0-4.85,6.72A1.17,1.17,0,0,0,23.6,54.65Zm9.3,17.86a5.65,5.65,0,1,1,5.64-5.65A5.64,5.64,0,0,1,32.9,72.51Zm44.7-18c-1.31-2.4-2.55-4.85-4.93-6.66.5-.53.82-.89,1.17-1.23,1.48-1.41,3.9-.46,4.63,1a6.29,6.29,0,0,1,1.07,2.47A5.84,5.84,0,0,1,77.6,54.53Zm-9.18,18a5.65,5.65,0,1,1,5.64-5.65A5.64,5.64,0,0,1,68.42,72.51Z"/><path class="cls-3" d="M50.4,37.92a1.81,1.81,0,0,1-1.81-1.81V10.56a1.81,1.81,0,0,1,3.62,0V36.11A1.81,1.81,0,0,1,50.4,37.92Z"/><path class="cls-3" d="M61.9,33.09a1.81,1.81,0,0,1-1.81-1.81V15.39a1.81,1.81,0,0,1,3.62,0V31.28A1.81,1.81,0,0,1,61.9,33.09Z"/><path class="cls-3" d="M38.91,33.09a1.81,1.81,0,0,1-1.81-1.81V15.39a1.81,1.81,0,0,1,3.62,0V31.28A1.81,1.81,0,0,1,38.91,33.09Z"/></g></svg>