<svg xmlns="http://www.w3.org/2000/svg" viewBox="0 0 346.77 74"><defs><style>.cls-1,.cls-6{fill:#4d4d4d;}.cls-2,.cls-4{fill:#007a67;}.cls-3{fill:#fff;}.cls-4{font-size:34.23px;}.cls-4,.cls-6{font-family:Nunito-Black, Nunito Black;font-weight:800;}.cls-5{letter-spacing:-0.01em;}.cls-6{font-size:14.13px;}.cls-7{letter-spacing:-0.06em;}.cls-8{letter-spacing:-0.02em;}.cls-9{letter-spacing:-0.01em;}.cls-10{letter-spacing:0em;}.cls-11{letter-spacing:0em;}.cls-12{letter-spacing:0.02em;}</style></defs><g id="Nav"><circle class="cls-1" cx="37.17" cy="36.83" r="33.83"/><circle class="cls-2" cx="37.17" cy="36.83" r="30.47"/><path class="cls-3" d="M59.77,31a4.62,4.62,0,0,1,1.78-.13l.08-.08A3.68,3.68,0,0,0,60.35,29,10.23,10.23,0,0,0,55.62,27a8,8,0,0,0-7.26,2.22A11,11,0,0,0,46.52,32,5.59,5.59,0,0,1,45,31.83a29.71,29.71,0,0,0-7.54-1.29,17.39,17.39,0,0,0-3.05.22c-.85.13-1.68.28-2.51.46a29,29,0,0,0-3.05.78c-.7.21-1,.1-1.25-.58a7.37,7.37,0,0,0-1.86-2.56,7.53,7.53,0,0,0-5-2.05,9.62,9.62,0,0,0-5,1.05,5.13,5.13,0,0,0-3,2.89l.07.08a4.67,4.67,0,0,1,1.73.11c-.15.46-.54.66-.78,1a5.41,5.41,0,0,0-1.51,2.83l.06,0c.56.12,1-.55,1.68-.15-.26,1.16-1,2.25-.62,3.57l.34-.27c.77-.67.89-.67,1.33.19a6.65,6.65,0,0,0,1,1.26,7.25,7.25,0,0,0,2.71,2,1.58,1.58,0,0,1,0,.44,26.87,26.87,0,0,0-1.21,7.28A16,16,0,0,0,17.88,53a9.15,9.15,0,0,0,1.64,4.26s.67.67,1.24,1.14a8.51,8.51,0,0,0,2.38,1.22,26.45,26.45,0,0,0,8.91,1.68,88.47,88.47,0,0,0,11.74-.15c1.26-.14,2.5-.28,3.75-.5a20.27,20.27,0,0,0,5.61-1.88,5.55,5.55,0,0,0,2.44-2.47A12.89,12.89,0,0,0,56.83,51a20.89,20.89,0,0,0-.68-7.29c-.21-.77-.34-1.56-.51-2.35a7.68,7.68,0,0,0,3.66-3.22c.51-.85.58-.87,1.35-.21.12.09.2.25.41.21a6.43,6.43,0,0,0-.71-3.49c.66-.4,1.15.25,1.71.14l0,0C61.94,33.15,60.76,32.16,59.77,31ZM41.45,51.55a2.23,2.23,0,0,1-2.31,2.09c-.62,0-1.24,0-1.86,0h0c-.58,0-1.16,0-1.74,0A2.37,2.37,0,0,1,33,51.11a29,29,0,0,1,0-3.23,14.36,14.36,0,0,1,.89-3.51A2.36,2.36,0,0,1,36,43a6.33,6.33,0,0,1,3.28.21,2.2,2.2,0,0,1,1.43,1.42A17,17,0,0,1,41.45,51.55ZM19.15,39.6l-.09-.1c-1.25-1.53-1.45-2.58-.88-4.14a2.31,2.31,0,0,1,3.75-.87c.15.14.28.29.5.54a14.1,14.1,0,0,0-3.24,4.5A.16.16,0,0,1,19.15,39.6Zm6.23,12a3.78,3.78,0,1,1,3.78-3.78A3.78,3.78,0,0,1,25.38,51.57Zm30-12A12.74,12.74,0,0,0,52,35.07c.34-.36.55-.6.79-.83a2.07,2.07,0,0,1,3.1.66,4.19,4.19,0,0,1,.71,1.66A3.91,3.91,0,0,1,55.33,39.53Zm-6.15,12A3.78,3.78,0,1,1,53,47.79,3.78,3.78,0,0,1,49.18,51.57Z"/><path class="cls-3" d="M37.11,28.4a1.21,1.21,0,0,1-1.21-1.21V10.07a1.21,1.21,0,0,1,2.42,0V27.19A1.21,1.21,0,0,1,37.11,28.4Z"/><path class="cls-3" d="M44.81,25.17A1.21,1.21,0,0,1,43.6,24V13.31a1.21,1.21,0,1,1,2.42,0V24A1.21,1.21,0,0,1,44.81,25.17Z"/><path class="cls-3" d="M29.41,25.17A1.21,1.21,0,0,1,28.2,24V13.31a1.21,1.21,0,1,1,2.42,0V24A1.21,1.21,0,0,1,29.41,25.17Z"/><text class="cls-4" transform="translate(79.1 38.7)">D<tspan class="cls-5" x="26.46" y="0">r</tspan><tspan x="40.45" y="0">opBearEats</tspan></text><text class="cls-6" transform="translate(80.42 58.68)"><tspan class="cls-7">W</tspan><tspan class="cls-8" x="14.97" y="0">e</tspan><tspan x="22.19" y="0">’ll d</tspan><tspan class="cls-9" x="46.84" y="0">r</tspan><tspan class="cls-10" x="52.62" y="0">op in on unbea</tspan><tspan class="cls-11" x="152.78" y="0">r</tspan><tspan x="158.71" y="0">able hunge</tspan><tspan class="cls-12" x="232.91" y="0">r</tspan><tspan x="239.08" y="0">!</tspan></text></g></svg>